<?xml version="1.0" encoding="utf-8"?>
<!-- Generator: Adobe Illustrator 27.6.1, SVG Export Plug-In . SVG Version: 6.00 Build 0)  -->
<svg version="1.1" id="a" xmlns="http://www.w3.org/2000/svg" xmlns:xlink="http://www.w3.org/1999/xlink" x="0px" y="0px"
	 viewBox="0 0 503.6 418.6" style="enable-background:new 0 0 503.6 418.6;" xml:space="preserve">
<style type="text/css">
	.st0{fill:#C97A3D;}
	.st1{fill:#FFFFFF;}
	.st2{fill:none;}
	.st3{fill:#B75F27;}
</style>
<path d="M355.9,129c-0.5-9.2-3.4-21.2-6.9-24.2c-1.1-1-2.2-1.1-3-1c-3.4,0.3-3.8,3.5-4.6,9.9c-0.7,5.1-1.7,12.7-4.1,22.8
	c-0.9,3.7-1.9,7.5-3,10.6c-4,11.1-13.2,20.9-27.3,29.3l-5.7,3.8l13.3,16.3l2.2-1.2c9.2-4.9,22.1-14.1,30.8-30.2
	C351.8,157.2,356.7,144.5,355.9,129L355.9,129z M347.4,134.8c-0.1,0.8-0.4,1.8-0.7,2.9C346.9,136.4,347.2,135.4,347.4,134.8z"/>
<path d="M232,90.2c4,1.5,6.7,4.5,8.1,8.4c1,2.8,1.9,5.6,2.3,8.5c0.5,3.7,2.2,6.2,5.1,8.4c1.7,1.2,3.4,2.5,5.1,3.8
	c3.2,0.3,6.4,0.3,9.7-0.3c-3.5-2.7-6.9-5.3-10.5-7.9c-2-1.4-3-3.2-3.5-5.7c-0.6-3.3-1.6-6.6-2.8-9.7c-2-5.2-5.6-8.8-10.7-11
	c-2.4-1-4.8-1.9-7.2-2.6c-0.4,2.1-0.6,4.2-0.6,6.2C228.6,88.9,230.3,89.5,232,90.2L232,90.2z"/>
<path d="M204.7,132.2c0.3-0.2,0.5-0.3,0.8-0.5c-0.1,0.1-0.2,0.1-0.4,0.2C205,132,204.8,132.1,204.7,132.2L204.7,132.2z"/>
<path d="M225.2,87.8c0.6,0.2,1.1,0.3,1.7,0.5c0-2,0.2-4.1,0.6-6.2c-2.5-0.7-5.1-1.3-7.7-1.7c0.8,1.9,1.7,4.1,2.4,6.6
	C223.2,87.2,224.2,87.5,225.2,87.8z"/>
<path d="M177.6,140.2c1.9-5.2,3.6-10.5,5-15.9c0.1-0.2,0.2-0.4,0.5-0.9c0.7,0.6,1.3,1.2,2,1.8c3.5,3.1,7.5,4.7,12.2,4.6
	c6.2-0.1,10.2-4,10.5-10.2c0.2-4.7-0.8-9.2-1.9-13.7c-1.1-4.5-2.3-9-3.2-13.5c-0.9-4.5-0.4-5.2,4.2-6.1c5.2-1,10.4-0.5,15.5,0.7
	c-0.7-2.5-1.6-4.7-2.4-6.6c-2.5-0.4-5-0.6-7.6-0.7c-8.2-0.2-15,2.7-20.1,9.2c-1.5,2-3,4-4.4,6.1c-4.9,7.8-8.3,16.2-10.4,25.1
	c-1.7,6.8-3.8,13.4-6.2,19.9C173.3,140.1,175.4,140.2,177.6,140.2L177.6,140.2z M185.5,113.9c2.4-7,5.5-13.7,10.1-19.7
	c0.1-0.2,0.4-0.3,0.8-0.6c0.3,1.2,0.5,2.2,0.7,3.2c1.2,5.1,2.6,10.2,3.7,15.3c0.5,2.2,0.8,4.6,0.7,6.9c-0.1,3.3-2.2,5-5.5,4.7
	c-5.1-0.6-8.5-3.5-10.5-8C185.3,115.2,185.3,114.4,185.5,113.9L185.5,113.9z"/>
<path d="M357.3,332c-1.6-7.2-3.5-14.4-5.2-21.6c-1.6-6.8-3.4-13.5-3.2-20.5c0.1-2.5-0.9-4.9-2.5-6.9c-0.8-1-1.5-2-2.4-2.9
	c-2.7-2.9-4.4-6.2-5.4-10c-1.7-6.9-3.4-13.9-5.1-20.8c-3.2-12.9-6.5-25.8-11.2-38.2c-2.9-7.7-6.5-15.1-12-21.3
	c-0.3-0.3-0.4-0.7-0.7-1.1c0,0,0.1,0,0.1-0.1c-0.2-0.3-0.4-0.5-0.6-0.8c-0.9-1.1-1.8-2.3-2.7-3.3c-0.3-0.3-0.6-0.6-0.9-0.9
	c0,0-0.5-0.4-1-0.6c-1.1-0.6-2-1.5-2.6-2.4c-0.1-0.1-0.3-0.2-0.4-0.3c0,0-1.7-1.3-3.4-2.6c-1.8-1.3-6.6-4.9-8-5.9
	c-5.7-4-15.2-8.5-25.3-9.6c-5-0.5-9.9-1-14.9-1.7c-5.2-0.7-10.4-1.8-15.3-3.8c-2.8-1.1-5.3-2.5-7.4-4.7c-1.5-1.6-2.5-3.4-2.6-5.8
	c0.9,0.1,1.5,0.1,2.2,0.1c7.8,0.6,15.7,1.3,23.5,0.3c2.8-0.4,5.3-1.2,7.6-2.3c2.7-1.4,12-6.1,12.7-13.7c0.1-1.1,0.3-3.4-1-5.4
	c-0.6-0.9-1.2-1.3-5.1-4.3c-0.7-0.5-1.4-1.1-2.1-1.6c-3.3,0.5-6.6,0.6-9.7,0.3c3.1,2.3,6.1,4.7,9.2,7.1c0.9,0.7,1.8,1.5,2.9,2.4
	c-4,5.8-8.2,11-15.7,11.7c-9.4,0.8-18.7,0.1-28-1.2c-2.1-0.3-4.1-1.1-6.1-1.9c-2.2-0.8-4-2.2-5.3-4.3c-1-1.7-2.5-2.1-3.9-1.4
	c-0.3,0.2-0.5,0.3-0.8,0.5c-1.1,0.9-1.3,2.4-0.5,4c1.2,2.4,3,4.2,5.4,5.4c2.6,1.3,5.3,2.4,8.3,3.7c0.1,0.2,0.3,0.8,0.3,1.4
	c0.5,4.4,2.6,7.9,5.9,10.8c3.9,3.3,8.5,5.1,13.4,6.5c7.5,2.1,15.2,3.1,23,3.7c10.1,0.7,19.1,4,27.4,9.8c10,6.9,18.4,15.3,24.3,25.9
	c3.6,6.4,6,13.4,7.9,20.4c3.9,14.2,7.5,28.4,11.3,42.6c0.5,1.8,1,3.6,1.4,5.4c1.1,4.7,3.3,8.9,6.7,12.3c2.4,2.4,3.1,5.2,3.4,8.6
	c0.4,5.6,1.6,11.1,2.8,16.6c1.6,7.2,3.5,14.4,5.3,21.6c0.2,1,0.5,2.1,0.6,3.1c0.2,2-0.5,3.7-2.2,4.9c-1.9,1.4-3.5,1.1-4.2-1.1
	c-1-3.1-1.9-6.3-2.4-9.6c-0.6-4.9-1.1-9.8-1.2-14.7c-0.1-5.5-1.2-10.7-3.6-15.5c-3-6.1-6.4-12-9.6-17.9c-2.6-4.7-5.1-9.4-7.9-14
	c-2.5-4-5.3-7.8-8.1-11.6c-2.5-3.3-5.3-6.5-8-9.7c-4-4.7-8-9.3-11.6-14.3c-4.6-6.6-10.4-12-17.8-15.4c-1.9-0.9-3.8-1.5-5.8-2.1
	c-2.2-0.7-3.8,0.1-4.3,1.8c-0.6,1.8,0.3,3.3,2.5,4c8.6,2.4,14.8,8,20.1,14.8c0.2,0.3,0.4,0.6,0.6,0.9c0.1,0.1,0,0.3,0,0.6
	c-0.3,0.1-0.7,0.2-1,0.2c-3.1-0.2-4.7,1.5-5.4,4.2c-0.7,2.7-1.3,5.4-1.4,8.1c-0.3,5.7,0.2,11.4,1.8,17c1.2,4.1,3.1,7.8,5.9,11
	c1,1.1,2,2.3,3.1,3.4c1.5,1.5,2.1,3.2,2,5.3c-0.3,3.7-0.3,7.5-0.8,11.2c-0.9,7.2-2,14.5-3.1,21.7c-0.7,5.3-4,8.6-8.4,11
	c-0.9,0.5-2,0.8-3.1,0.9c-1.7,0.1-2.5-1-1.8-2.6c0.5-1,1.2-2,2-2.8c2.1-1.8,3.4-4.1,4.3-6.6c2.3-6.3,3.4-12.9,3.8-19.6
	c0.2-3.8-0.7-7.3-2.5-10.5c-2-3.4-4.1-6.7-6.5-9.8c-2.8-3.6-5.7-7.1-8.9-10.3c-7.3-7.3-11.3-16.2-13.3-26.1
	c-0.9-4.7-1.7-9.5-2.5-14.2c-0.5-3.1-1.9-4-4.8-3c-4.3,1.4-8.7,1.5-13.5,2c0.4-3.1,0.9-5.8,1.2-8.6c0.2-1.9,0.4-3.7,0.4-5.6
	c0-1.9-1.2-3.2-2.8-3.2c-1.6-0.1-2.9,1.1-3.1,3c-1.3,11.5-2.5,23-3.8,34.6c-1.4,12.1-3,24.2-5.3,36.2c-1.4,6.8-1.9,13.8-2.6,20.7
	c-0.8,7.9-1.4,15.8-2.2,23.7c-0.7,6.7-6.6,11.6-13.3,11.2c-1-0.1-2-0.5-3.1-0.8c0.2-2.4,1.3-4.1,2.4-5.8c1.2-1.7,2.4-3.3,3.7-4.9
	c1.9-2.4,3.1-5,3.4-8c0.5-4.3,1.2-8.7,1.4-13c0.4-8.7,0.8-17.5,0.7-26.2c-0.1-12.6-2.5-25-5.9-37.1c-1.9-6.6-3.1-13.4-3.5-20.2
	c0-0.2,0-0.4,0-0.5c-0.2-2.1-1.4-3.3-3.1-3.2c-1.8,0.1-2.9,1.4-2.9,3.5c0,1.6,0.1,3.2,0.3,4.8c0.4,2.8,0.8,5.6,1.2,8.5
	c0.1,0.4,0.1,0.9,0.1,1.5c-0.8-0.1-1.5-0.2-2.2-0.4c-3.8-1.1-7.5-2.3-11.2-3.5c-3.4-1.1-4.8-0.1-5.1,3.4c-1.6,18-3.4,36.1-4.9,54.1
	c-0.8,8.9-1.1,17.8-1.8,26.7c-0.2,2.8-0.6,5.7-1.1,8.5c-0.2,1.2-0.6,2.4-1.2,3.5c-1.5,3.3-3.9,5.5-7.7,5.7c-2.4,0.1-4.8,0.5-7.2,0.5
	c-2.5,0-3.1-0.9-2.3-3.2c1.2-3.7,3.3-6.7,7-8.3c4-1.7,5.4-5.2,5.5-9.1c0.3-6.8,0.4-13.6,0.2-20.3c-0.5-13.2-1-26.4-1.9-39.6
	c-0.8-11.7-2-23.3-2.9-34.9c-0.5-6.4-0.2-12.8,0.6-19.2c1.4-10.9,4.2-21.5,6.9-32.2c1.7-7.1,4.7-13.6,7.3-20.4
	c0.9-2.4,1.8-4.8,2.7-7.2c-2.1,0.1-4.3,0-6.5-0.2c-0.4,1.2-0.9,2.5-1.4,3.7c-2.8,7.4-6.2,14.6-8.1,22.4c-2.2,9.4-4.8,18.7-6.3,28.2
	c-1.4,8.8-2.2,17.5-1.3,26.4c0.7,6.7,1.5,13.5,1.9,20.2c1.4,20.3,2.7,40.6,3,60.9c0.1,3.7,0,7.3-0.2,11c-0.1,1.9-0.5,3.9-2.7,4.9
	c-5.1,2.4-8.1,6.6-9.7,11.8c-0.4,1.2-0.5,2.6-0.5,4c0.1,3.2,1.9,5.6,4.9,6.6c1,0.3,2.1,0.7,3.1,0.6c4-0.3,8-0.7,11.9-1.3
	c2.4-0.4,4.5-1.7,6.1-3.7c2.2-2.7,4.1-5.7,4.6-9.2c0.7-4.9,1.2-9.7,1.6-14.6c0.7-8.5,1.1-17.1,1.8-25.6c1.1-13,2.4-25.9,3.7-38.9
	c0.3-2.7,0.5-5.4,0.8-8.3c5,1.4,9.7,2.7,14.4,4.1c0.1,0.4,0.3,0.7,0.4,1c2.6,9.3,4.5,18.7,5.2,28.4c0.9,13,0,26-0.9,39
	c-0.4,5.5-2,10.1-5.7,14.4c-1.9,2.2-3.3,5.1-4.3,7.9c-1.6,4.2,0.5,7.9,4.8,9.2c2.9,0.9,5.8,0.9,8.7,0.1c10.1-2.9,14.1-8.5,14.7-16.5
	c0.4-5.2,1-10.5,1.5-15.7c0.8-7.9,1.5-15.8,2.6-23.7c0.7-5.1,2-10.1,2.7-15.3c1.4-10.2,2.6-20.5,3.9-30.8c0.4-3.1,0.7-6.1,1.1-9.2
	c4.5-0.5,8.7-1,13-1.4c0.8,4.2,1.6,8.2,2.4,12.2c2.2,10.7,6.6,20.3,14.4,28.2c2.9,2.9,5.6,6.1,8.1,9.3c2.4,3.1,4.6,6.4,6.6,9.7
	c1.9,3.1,2.4,6.7,1.7,10.3c-0.2,0.9-0.1,1.8-0.3,2.7c-1.3,6.7-1.9,13.6-7.5,18.6c-1.9,1.7-2.6,4.3-2.4,6.9c0.3,4.9,4.9,8.2,10.1,6.8
	c8-2.1,13.5-7.1,15.2-15.2c2.4-11.4,3.7-22.9,4.4-34.5c0.2-4.2-0.8-7.9-4-10.9c-0.8-0.8-1.6-1.7-2.4-2.6c-2.6-2.9-4.3-6.3-5.2-10.1
	c-1.2-5.2-1.5-10.6-1.1-16c0.1-1.4,0.6-2.7,0.9-4.1c1.4-0.1,2.4-0.1,3.5-0.3c1.6-0.3,2.7,0.3,3.7,1.6c4.7,5.7,9.6,11.3,14.2,17.1
	c2.4,3,4.5,6.2,6.5,9.4c2.3,3.8,4.4,7.8,6.5,11.7c3.7,6.7,7.4,13.4,10.9,20.2c1.9,3.6,2.6,7.5,2.8,11.6c0.2,5.6,0.7,11.2,1.3,16.8
	c0.4,4,1.3,7.9,3.1,11.6c1.4,2.8,3.6,4.5,6.7,4.6c2.6,0.2,4.9-0.7,6.9-2.4C357.1,340.5,358.4,336.5,357.3,332L357.3,332z"/>
<path class="st0" d="M222,111.5c3.2-9,2.2-17.7,0.2-24.5c-5.1-1.2-10.2-1.7-15.5-0.7c-4.6,0.9-5.1,1.6-4.2,6.1
	c0.9,4.5,2.1,9,3.2,13.5c1.1,4.5,2.1,9,1.9,13.7c-0.3,6.2-4.3,10.1-10.5,10.2c-4.7,0.1-8.7-1.6-12.2-4.7c-0.6-0.6-1.3-1.1-2-1.8
	c-0.2,0.4-0.4,0.6-0.5,0.9c-1.3,5.4-3.1,10.7-5,15.9c10.2-0.3,19.5-3.2,27.2-8c0.1-0.1,0.2-0.2,0.4-0.3c0.1-0.1,0.2-0.1,0.4-0.2
	C213.2,126.7,219.1,119.7,222,111.5L222,111.5z"/>
<path class="st1" d="M226.9,88.3c-0.6-0.2-1.1-0.4-1.7-0.5c-1-0.3-2-0.5-3.1-0.8c1.9,6.8,2.9,15.5-0.2,24.5
	c-2.9,8.2-8.7,15.2-16.5,20.2c1.4-0.7,2.9-0.2,3.9,1.4c1.3,2.1,3.1,3.4,5.3,4.3c2,0.8,4,1.6,6.1,1.9c9.3,1.2,18.6,2,28,1.1
	c7.6-0.7,11.8-5.9,15.7-11.7c-1.1-0.9-2-1.7-2.9-2.4c-3.1-2.4-6.1-4.7-9.2-7.1c-6-0.7-11.5-2.9-15.8-6.6
	C230.3,107,226.8,98,226.9,88.3L226.9,88.3z"/>
<path class="st0" d="M242.4,107.1c-0.4-2.9-1.3-5.7-2.3-8.5c-1.4-4-4-6.9-8.1-8.4c-1.7-0.7-3.4-1.3-5.1-1.9
	c-0.2,9.7,3.4,18.8,9.8,24.4c4.2,3.7,9.8,5.9,15.8,6.6c-1.7-1.3-3.4-2.5-5.1-3.8C244.6,113.3,242.9,110.8,242.4,107.1z"/>
<path class="st0" d="M196.1,123.7c3.3,0.4,5.4-1.3,5.5-4.7c0.1-2.3-0.2-4.6-0.7-6.9c-1.1-5.1-2.4-10.2-3.7-15.3
	c-0.2-1-0.5-2-0.7-3.2c-0.4,0.3-0.7,0.4-0.8,0.6c-4.6,5.9-7.7,12.6-10.1,19.7c-0.2,0.5-0.1,1.3,0.1,1.8
	C187.6,120.2,191,123.1,196.1,123.7L196.1,123.7z"/>
<path class="st2" d="M265.3,214c0.2-0.2,0.4-0.4,0.5-0.6C265.6,213.6,265.5,213.8,265.3,214z"/>
<path class="st1" d="M260.4,217.2c-6.7-1.3-5.8-26.2-10.6-26.6c-3.3-0.3-4.4,11.5-11.8,13.6c-5.1,1.4-10.2-2.5-14.8-5.9
	c-6.2-4.7-16-12.1-15.4-22.4c0.5-7.7,6.6-15.1,15.8-18.9c-3-2.7-4.8-6.1-5.3-10.2c-0.1-0.6-0.3-1.2-0.3-1.4c-3-1.3-5.7-2.4-8.3-3.7
	c-2.3-1.2-4.2-3-5.4-5.4c-0.8-1.6-0.5-3,0.5-4c-7.6,4.8-17,7.7-27.2,7.9c-0.9,2.4-1.8,4.8-2.7,7.1c-2.6,6.7-5.6,13.3-7.3,20.4
	c-2.6,10.7-5.4,21.3-6.9,32.2c-0.9,6.4-1.2,12.8-0.6,19.2c1,11.6,2.2,23.3,2.9,34.9c0.9,13.2,1.4,26.4,1.9,39.6
	c0.2,6.8,0.1,13.6-0.2,20.3c-0.2,3.9-1.6,7.4-5.5,9.1c-3.7,1.6-5.8,4.7-7,8.3c-0.8,2.3-0.1,3.2,2.3,3.2c2.4,0,4.8-0.4,7.2-0.5
	c3.9-0.2,6.2-2.4,7.7-5.7c0.5-1.1,1-2.3,1.2-3.5c0.5-2.8,0.9-5.6,1.1-8.5c0.6-8.9,1-17.8,1.8-26.7c1.5-18,3.2-36.1,4.9-54.1
	c0.3-3.6,1.7-4.5,5.1-3.4c3.8,1.2,7.5,2.3,11.2,3.5c0.6,0.2,1.3,0.2,2.2,0.4c0-0.7,0-1.1-0.1-1.5c-0.4-2.8-0.9-5.6-1.2-8.5
	c-0.2-1.6-0.3-3.2-0.3-4.8c0-2.1,1.1-3.4,2.9-3.5c1.8-0.1,2.9,1.1,3.1,3.2c0,0.2,0,0.4,0,0.5c0.4,6.9,1.6,13.6,3.5,20.2
	c3.4,12.1,5.8,24.5,5.9,37.1c0.1,8.7-0.3,17.5-0.7,26.2c-0.2,4.4-0.9,8.7-1.4,13c-0.4,3-1.6,5.6-3.4,8c-1.3,1.6-2.5,3.2-3.7,4.9
	c-1.2,1.7-2.2,3.4-2.4,5.8c1.1,0.3,2.1,0.7,3.1,0.8c6.7,0.4,12.6-4.6,13.3-11.2c0.8-7.9,1.4-15.8,2.2-23.7
	c0.7-6.9,1.3-13.9,2.6-20.7c2.4-12,3.9-24.1,5.3-36.2c1.3-11.5,2.5-23,3.8-34.6c0.2-1.9,1.5-3.1,3.1-3c1.6,0.1,2.8,1.4,2.8,3.2
	c0,1.9-0.1,3.8-0.4,5.6c-0.3,2.8-0.8,5.6-1.2,8.6c4.8-0.5,9.2-0.6,13.5-2c2.9-0.9,4.2-0.1,4.8,3c0.8,4.7,1.6,9.5,2.5,14.2
	c2,9.9,6,18.8,13.3,26.1c3.2,3.2,6.1,6.7,8.9,10.3c2.4,3.1,4.5,6.4,6.5,9.8c1.8,3.2,2.7,6.8,2.5,10.5c-0.4,6.7-1.5,13.3-3.8,19.6
	c-0.9,2.5-2.2,4.9-4.3,6.6c-0.9,0.7-1.6,1.7-2,2.8c-0.7,1.6,0.1,2.7,1.8,2.6c1-0.1,2.1-0.4,3.1-0.9c4.4-2.4,7.7-5.8,8.4-11
	c1-7.2,2.1-14.5,3.1-21.7c0.5-3.7,0.5-7.5,0.8-11.2c0.1-2.1-0.5-3.8-2-5.3c-1.1-1.1-2.1-2.2-3.1-3.4c-2.8-3.2-4.8-6.9-5.9-11
	c-1.6-5.6-2.1-11.2-1.8-17c0.1-2.7,0.8-5.5,1.4-8.1c0.7-2.6,2.3-4.4,5.4-4.2c0.3,0,0.7-0.1,1-0.2c0-0.2,0-0.5,0-0.6
	c-0.2-0.3-0.4-0.6-0.6-0.9c-5.3-6.8-11.5-12.4-20.1-14.8c-2.2-0.6-3.1-2.2-2.5-4c0.1-0.4,0.3-0.7,0.5-1
	C262.7,216.6,261.7,217.4,260.4,217.2L260.4,217.2z"/>
<path class="st3" d="M271.6,207.7c10.2-9.8,12.6-9.9,13.6-13c2.8-8.3-10.1-19.9-18.1-26.2c-2.2-0.4-4.4-0.7-6.6-0.9
	c-7.7-0.5-15.5-1.5-23-3.7c-4.8-1.4-9.5-3.2-13.4-6.5c-0.2-0.2-0.4-0.4-0.6-0.5c-9.1,3.8-15.3,11.2-15.8,18.9
	c-0.7,10.4,9.1,17.7,15.4,22.5c4.6,3.4,9.7,7.3,14.8,5.9c7.5-2.1,8.5-13.9,11.8-13.6c4.8,0.4,4,25.3,10.6,26.6
	c1.4,0.3,2.4-0.6,4.9-3.2c0.2-0.2,0.3-0.4,0.5-0.6C267.2,212,269.1,210.1,271.6,207.7L271.6,207.7z"/>
<g>
	<path class="st3" d="M294.6,220.1c2.4,5.8,9.2,12.4,28.7,15.6c-1.1-4-2.1-8-3.2-12c-1.9-7.1-4.4-14-7.9-20.4
		c-4.8-8.7-11.3-15.8-18.9-21.9c1,3.4,1.7,7,1.9,10.9C296.2,205.9,291.3,212.3,294.6,220.1L294.6,220.1z"/>
	<path class="st1" d="M351.5,334.1c-0.1-1.1-0.4-2.1-0.6-3.1c-1.8-7.2-3.7-14.3-5.3-21.6c-1.2-5.5-2.3-11-2.8-16.6
		c-0.3-3.4-1-6.2-3.4-8.6c-3.4-3.4-5.6-7.6-6.7-12.3c-0.4-1.8-0.9-3.6-1.4-5.4c-2.7-10.2-5.3-20.4-8-30.6
		c-19.5-3.3-26.3-9.8-28.7-15.6c-3.3-7.9,1.5-14.2,0.6-27.8c-0.3-3.9-1-7.5-1.9-10.9c-1.8-1.4-3.6-2.8-5.5-4.1
		c-6.4-4.4-13.2-7.4-20.7-8.9c8,6.3,20.8,17.9,18.1,26.2c-1,3.1-3.3,3.2-13.6,13c-2.5,2.4-4.3,4.3-5.7,5.7c0.8-0.6,1.9-0.7,3.3-0.3
		c2,0.6,3.9,1.3,5.8,2.1c7.4,3.4,13.2,8.8,17.8,15.4c3.5,5.1,7.6,9.7,11.6,14.3c2.7,3.2,5.5,6.4,8,9.7c2.9,3.8,5.6,7.6,8.1,11.6
		c2.8,4.5,5.3,9.3,7.9,14c3.2,5.9,6.6,11.9,9.6,17.9c2.4,4.8,3.5,10,3.6,15.5c0.1,4.9,0.5,9.8,1.2,14.7c0.4,3.2,1.3,6.4,2.4,9.6
		c0.7,2.1,2.4,2.5,4.2,1.1C350.9,337.8,351.6,336.1,351.5,334.1L351.5,334.1z"/>
</g>
<circle cx="220.9" cy="109.2" r="4.3"/>
<path d="M255.9,124.4c-1.7,3.3,1.8,8.5,6.1,10c2,0.7,5.4,0.9,7-1c2.3-2.8,0.1-9.8-4.7-11.5C261.3,120.8,257.2,121.8,255.9,124.4
	L255.9,124.4z"/>
<g>
	<path class="st3" d="M334,159.7c-4.7,7.2-13,15.5-27.4,24.6c2,2.6,4,5.2,6,7.8c14-8.6,22.4-18.3,27.5-25.5c-0.6-1.6-1.4-3-2.5-4.2
		C336.6,161.3,335.3,160.4,334,159.7z"/>
	<path class="st1" d="M347.4,110.8c-1.1,0,1.2,14.2-6.2,34c-2.3,6.2-5,11.2-7.1,14.9c1.3,0.7,2.5,1.6,3.5,2.7
		c1.1,1.2,1.9,2.6,2.5,4.2c0.3-0.4,0.8-1.1,1.4-2C356.6,141.3,349,110.8,347.4,110.8L347.4,110.8z"/>
</g>
</svg>
